<?xml version='1.0' encoding='ascii'?>
<svg xmlns="http://www.w3.org/2000/svg" version="1.1" width="1920" height="1920">
    <g id="View Layer_LineSet" xmlns:inkscape="http://www.inkscape.org/namespaces/inkscape" inkscape:groupmode="lineset" inkscape:label="View Layer_LineSet">
        <g xmlns:inkscape="http://www.inkscape.org/namespaces/inkscape" inkscape:groupmode="layer" id="strokes" inkscape:label="strokes">
            <path fill="none" stroke-width="3.0" stroke-linecap="butt" stroke-opacity="1.0" stroke="rgb(0, 0, 0)" stroke-linejoin="miter" d=" M 562.482, 1504.208 562.482, 1514.208 562.482, 1524.208 562.482, 1534.208 562.482, 1544.208 562.482, 1554.208 562.482, 1564.208 562.482, 1574.208 562.482, 1584.208 562.482, 1594.208 562.482, 1604.208 562.482, 1614.208 562.482, 1624.208 562.482, 1634.208 562.482, 1644.208 562.482, 1654.208 562.482, 1664.208 562.482, 1674.208 562.482, 1684.208 562.482, 1694.208 562.482, 1704.208 562.482, 1714.208 562.482, 1724.208 562.482, 1734.208 562.482, 1744.208 562.482, 1754.208 562.482, 1764.208 562.482, 1774.208 562.482, 1784.208 562.482, 1794.208 562.482, 1804.208 562.482, 1814.208 562.482, 1819.977 572.482, 1819.977 582.482, 1819.977 592.482, 1819.977 602.482, 1819.977 612.482, 1819.977 622.482, 1819.977 632.482, 1819.977 642.482, 1819.977 652.482, 1819.977 662.482, 1819.977 672.482, 1819.977 682.482, 1819.977 692.482, 1819.977 702.482, 1819.977 712.482, 1819.977 722.482, 1819.977 732.482, 1819.977 742.482, 1819.977 752.482, 1819.977 762.482, 1819.977 772.482, 1819.977 782.482, 1819.977 792.482, 1819.977 802.482, 1819.977 812.482, 1819.977 822.482, 1819.977 832.482, 1819.977 842.482, 1819.977 852.482, 1819.977 862.482, 1819.977 872.482, 1819.977 882.482, 1819.977 892.482, 1819.977 902.482, 1819.977 912.482, 1819.977 922.482, 1819.977 932.482, 1819.977 942.482, 1819.977 952.482, 1819.977 962.482, 1819.977 972.482, 1819.977 982.482, 1819.977 992.482, 1819.977 1002.482, 1819.977 1012.482, 1819.977 1022.482, 1819.977 1032.482, 1819.977 1042.482, 1819.977 1052.482, 1819.977 1062.482, 1819.977 1072.482, 1819.977 1082.482, 1819.977 1092.482, 1819.977 1102.482, 1819.977 1112.482, 1819.977 1122.482, 1819.977 1132.482, 1819.977 1142.482, 1819.977 1152.482, 1819.977 1162.482, 1819.977 1172.482, 1819.977 1182.482, 1819.977 1192.482, 1819.977 1202.482, 1819.977 1212.482, 1819.977 1222.482, 1819.977 1232.482, 1819.977 1242.482, 1819.977 1252.482, 1819.977 1262.482, 1819.977 1272.482, 1819.977 1282.482, 1819.977 1292.482, 1819.977 1302.482, 1819.977 1312.482, 1819.977 1322.482, 1819.977 1332.482, 1819.977 1342.482, 1819.977 1352.482, 1819.977 1362.482, 1819.977 1372.482, 1819.977 1382.482, 1819.977 1392.482, 1819.977 1402.482, 1819.977 1412.482, 1819.977 1422.482, 1819.977 1432.482, 1819.977 1442.482, 1819.977 1452.482, 1819.977 1462.482, 1819.977 1472.482, 1819.977 1482.482, 1819.977 1492.482, 1819.977 1502.482, 1819.977 1512.482, 1819.977 1522.482, 1819.977 1532.482, 1819.977 1542.482, 1819.977 1552.482, 1819.977 1562.482, 1819.977 1572.482, 1819.977 1582.482, 1819.977 1592.482, 1819.977 1602.482, 1819.977 1612.482, 1819.977 1622.482, 1819.977 1632.482, 1819.977 1642.482, 1819.977 1652.482, 1819.977 1662.482, 1819.977 1672.482, 1819.977 1682.482, 1819.977 1692.482, 1819.977 1702.482, 1819.977 1712.482, 1819.977 1722.482, 1819.977 1732.482, 1819.977 1742.482, 1819.977 1752.482, 1819.977 1762.482, 1819.977 1772.482, 1819.977 1782.482, 1819.977 1792.482, 1819.977 1802.482, 1819.977 1812.482, 1819.977 1825.557, 1819.977 1825.557, 1809.977 1825.557, 1799.977 1825.557, 1789.977 1825.557, 1779.977 1825.557, 1769.977 1825.557, 1759.977 1825.557, 1749.977 1825.557, 1739.977 1825.557, 1729.977 1825.557, 1719.977 1825.557, 1709.977 1825.557, 1699.977 1825.557, 1689.977 1825.557, 1679.977 1825.557, 1669.977 1825.557, 1659.977 1825.557, 1649.977 1825.557, 1639.977 1825.557, 1629.977 1825.557, 1619.977 1825.557, 1609.977 1825.557, 1599.977 1825.557, 1589.977 1825.557, 1579.977 1825.557, 1569.977 1825.557, 1559.977 1825.557, 1549.977 1825.557, 1539.977 1825.557, 1529.977 1825.557, 1519.977 1825.557, 1509.977 1825.557, 1499.977 1825.557, 1489.977 1825.557, 1479.977 1825.557, 1469.977 1825.557, 1459.977 1825.557, 1449.977 1825.557, 1439.977 1825.557, 1429.977 1825.557, 1419.977 1825.557, 1409.977 1825.557, 1399.977 1825.557, 1389.977 1825.557, 1379.977 1825.557, 1369.977 1825.557, 1359.977 1825.557, 1349.977 1825.557, 1339.977 1825.557, 1329.977 1825.557, 1319.977 1825.557, 1309.977 1825.557, 1299.977 1825.557, 1289.977 1825.557, 1279.977 1825.557, 1269.977 1825.557, 1259.977 1825.557, 1249.977 1825.557, 1239.977 1825.557, 1229.977 1825.557, 1219.977 1825.557, 1209.977 1825.557, 1199.977 1825.557, 1189.977 1825.557, 1179.977 1825.557, 1169.977 1825.557, 1159.977 1825.557, 1149.977 1825.557, 1139.977 1825.557, 1129.977 1825.557, 1119.977 1825.557, 1109.977 1825.557, 1099.977 1825.557, 1089.977 1825.557, 1079.977 1825.557, 1069.977 1825.557, 1059.977 1825.557, 1049.977 1825.557, 1039.977 1825.557, 1029.977 1825.557, 1019.977 1825.557, 1009.977 1825.557, 999.977 1825.557, 989.977 1825.557, 979.977 1825.557, 969.977 1825.557, 959.977 1825.557, 949.977 1825.557, 939.977 1825.557, 929.977 1825.557, 919.977 1825.557, 909.977 1825.557, 899.977 1825.557, 889.977 1825.557, 879.977 1825.557, 869.977 1825.557, 859.977 1825.557, 849.977 1825.557, 839.977 1825.557, 829.977 1825.557, 819.977 1825.557, 809.977 1825.557, 799.977 1825.557, 789.977 1825.557, 779.977 1825.557, 769.977 1825.557, 759.977 1825.557, 749.977 1825.557, 739.977 1825.557, 729.977 1825.557, 719.977 1825.557, 709.977 1825.557, 699.977 1825.557, 689.977 1825.557, 679.977 1825.557, 669.977 1825.557, 659.977 1825.557, 649.977 1825.557, 639.977 1825.557, 629.977 1825.557, 619.977 1825.557, 609.977 1825.557, 599.977 1825.557, 589.977 1825.557, 579.977 1825.557, 569.977 1825.557, 559.977 1825.557, 549.977 1825.557, 539.977 1825.557, 529.977 1825.557, 519.977 1825.557, 509.977 1825.557, 499.977 1825.557, 489.977 1825.557, 479.977 1825.557, 469.977 1825.557, 459.977 1825.557, 449.977 1825.557, 439.977 1825.557, 429.977 1825.557, 419.977 1825.557, 409.977 1825.557, 399.977 1825.557, 389.977 1825.557, 379.977 1825.557, 369.977 1825.557, 359.977 1825.557, 349.977 1825.557, 339.977 1825.557, 329.977 1825.557, 319.977 1825.557, 309.977 1825.557, 299.977 1825.557, 289.977 1825.557, 279.977 1825.557, 269.977 1825.557, 259.977 1825.557, 249.977 1825.557, 239.977 1825.557, 229.977 1825.557, 219.977 1825.557, 209.977 1825.557, 199.977 1825.557, 189.977 1825.557, 179.977 1825.557, 169.977 1825.557, 159.977 1825.557, 149.977 1825.557, 139.977 1825.557, 129.977 1825.557, 119.977 1825.557, 109.977 1825.557, 83.249 1816.613, 87.721 1807.669, 92.193 1798.724, 96.665 1789.780, 101.138 1780.836, 105.610 1771.891, 110.082 1762.947, 114.554 1754.003, 119.026 1745.059, 123.498 1736.114, 127.970 1727.170, 132.443 1718.226, 136.915 1709.281, 141.387 1700.337, 145.859 1691.393, 150.331 1682.449, 154.803 1673.504, 159.275 1664.560, 163.747 1655.616, 168.220 1646.672, 172.692 1637.727, 177.164 1628.783, 181.636 1619.839, 186.108 1610.895, 190.580 1601.950, 195.052 1593.006, 199.525 1584.062, 203.997 1575.117, 208.469 1566.173, 212.941 1557.229, 217.413 1548.285, 221.885 1539.340, 226.357 1530.396, 230.829 1521.452, 235.302 1512.508, 239.774 1503.563, 244.246 1494.619, 248.718 1485.675, 253.190 1476.730, 257.662 1467.786, 262.134 1458.842, 266.607 1449.898, 271.079 1440.953, 275.551 1432.009, 280.023 1423.065, 284.495 1414.121, 288.967 1405.176, 293.439 1396.232, 297.911 1387.288, 302.384 1378.344, 306.856 1369.399, 311.328 1360.455, 315.800 1351.511, 320.272 1342.566, 324.744 1333.622, 329.216 1324.678, 333.689 1315.734, 338.161 1306.789, 342.633 1297.845, 347.105 1288.901, 351.577 1279.957, 356.049 1271.012, 360.521 1262.068, 364.994 1253.124, 369.466 1244.179, 373.938 1235.235, 378.410 1226.291, 382.882 1217.347, 387.354 1208.402, 391.826 1199.458, 396.299 1190.514, 400.771 1181.569, 405.243 1172.625, 409.715 1163.681, 414.187 1154.737, 418.659 1145.792, 423.131 1136.848, 427.604 1127.904, 432.076 1118.960, 436.548 1110.015, 441.020 1101.071, 445.492 1092.127, 449.964 1083.182, 454.436 1074.238, 458.908 1065.294, 463.381 1056.350, 467.853 1047.405, 472.325 1038.461, 476.797 1029.517, 481.269 1020.573, 485.741 1011.628, 490.213 1002.684, 494.686 993.740, 499.158 984.796, 503.630 975.851, 508.102 966.907, 512.574 957.193, 517.431 948.249, 512.959 939.305, 508.487 930.360, 504.015 921.416, 499.542 912.472, 495.070 903.528, 490.598 894.583, 486.126 885.639, 481.654 876.695, 477.182 867.750, 472.710 858.806, 468.237 849.862, 463.765 840.918, 459.293 831.973, 454.821 823.029, 450.349 814.085, 445.877 805.141, 441.405 796.196, 436.932 787.252, 432.460 778.308, 427.988 769.363, 423.516 760.419, 419.044 751.475, 414.572 742.531, 410.100 733.586, 405.628 724.642, 401.155 715.698, 396.683 706.754, 392.211 697.809, 387.739 688.865, 383.267 679.921, 378.795 670.977, 374.323 662.032, 369.850 653.088, 365.378 644.144, 360.906 635.199, 356.434 626.255, 351.962 617.311, 347.490 608.367, 343.018 599.422, 338.546 590.478, 334.073 581.534, 329.601 572.590, 325.129 562.482, 320.076 562.482, 330.076 562.482, 340.076 562.482, 350.076 562.482, 360.076 562.482, 370.076 562.482, 380.076 562.482, 390.076 562.482, 400.076 562.482, 410.076 562.482, 420.076 562.482, 430.076 562.482, 440.076 562.482, 450.076 562.482, 460.076 562.482, 470.076 562.482, 480.076 562.482, 490.076 562.482, 500.076 562.482, 510.076 562.482, 520.076 562.482, 530.076 562.482, 540.076 562.482, 550.076 562.482, 560.076 562.482, 570.076 562.482, 580.076 562.482, 590.076 562.482, 600.076 562.482, 610.076 562.482, 620.076 562.482, 630.076 562.482, 640.076 562.482, 650.076 562.482, 660.076 562.482, 673.113 571.427, 677.585 580.371, 682.057 589.315, 686.530 598.259, 691.002 607.204, 695.474 616.148, 699.946 625.092, 704.418 634.036, 708.890 642.981, 713.362 651.925, 717.834 660.869, 722.307 669.814, 726.779 678.758, 731.251 687.702, 735.723 696.646, 740.195 705.591, 744.667 714.535, 749.139 723.479, 753.612 732.424, 758.084 741.368, 762.556 750.312, 767.028 759.256, 771.500 768.201, 775.972 777.145, 780.444 786.089, 784.917 795.033, 789.389 803.978, 793.861 812.922, 798.333 821.866, 802.805 830.810, 807.277 839.755, 811.749 848.699, 816.222 857.643, 820.694 866.588, 825.166 875.532, 829.638 884.476, 834.110 893.420, 838.582 902.365, 843.054 911.309, 847.526 920.253, 851.999 929.197, 856.471 938.142, 860.943 947.086, 865.415 957.193, 870.469 966.137, 865.996 975.082, 861.524 984.026, 857.052 992.970, 852.580 1001.915, 848.108 1010.859, 843.636 1019.803, 839.164 1028.747, 834.692 1037.692, 830.219 1046.636, 825.747 1055.580, 821.275 1064.524, 816.803 1073.469, 812.331 1082.413, 807.859 1091.357, 803.387 1100.302, 798.914 1109.246, 794.442 1118.190, 789.970 1127.134, 785.498 1136.079, 781.026 1145.023, 776.554 1153.967, 772.082 1162.911, 767.609 1171.856, 763.137 1180.800, 758.665 1189.744, 754.193 1198.689, 749.721 1207.633, 745.249 1216.577, 740.777 1225.521, 736.305 1234.466, 731.832 1243.410, 727.360 1252.354, 722.888 1261.298, 718.416 1270.243, 713.944 1279.187, 709.472 1288.131, 705.000 1297.076, 700.527 1306.020, 696.055 1314.964, 691.583 1323.908, 687.111 1332.853, 682.639 1341.797, 678.167 1350.741, 673.695 1359.685, 669.223 1368.630, 664.750 1377.574, 660.278 1386.518, 655.806 1395.463, 651.334 1404.407, 646.862 1413.351, 642.390 1422.295, 637.918 1431.240, 633.445 1440.184, 628.973 1449.128, 624.501 1458.072, 620.029 1467.017, 615.557 1475.961, 611.085 1484.905, 606.613 1493.849, 602.141 1502.794, 597.668 1509.788, 594.171 1509.788, 604.171 1509.788, 614.171 1509.788, 624.171 1509.788, 634.171 1509.788, 644.171 1509.788, 654.171 1509.788, 664.171 1509.788, 674.171 1509.788, 684.171 1509.788, 694.171 1509.788, 704.171 1509.788, 714.171 1509.788, 724.171 1509.788, 734.171 1509.788, 744.171 1509.788, 754.171 1509.788, 764.171 1509.788, 774.171 1509.788, 784.171 1509.788, 794.171 1509.788, 804.171 1509.788, 814.171 1509.788, 824.171 1509.788, 834.171 1509.788, 844.171 1509.788, 854.171 1509.788, 864.171 1509.788, 874.171 1509.788, 884.171 1509.788, 894.171 1509.788, 904.171 1509.788, 914.171 1509.788, 924.171 1509.788, 934.171 1509.788, 944.171 1509.788, 954.171 1509.788, 964.171 1509.788, 974.171 1509.788, 984.171 1509.788, 994.171 1509.788, 1004.171 1509.788, 1014.171 1509.788, 1024.171 1509.788, 1034.171 1509.788, 1044.171 1509.788, 1054.171 1509.788, 1064.171 1509.788, 1074.171 1509.788, 1084.171 1509.788, 1094.171 1509.788, 1104.171 1509.788, 1114.171 1509.788, 1124.171 1509.788, 1134.171 1509.788, 1144.171 1509.788, 1154.171 1509.788, 1164.171 1509.788, 1174.171 1509.788, 1184.171 1509.788, 1194.171 1509.788, 1204.171 1509.788, 1214.171 1509.788, 1224.171 1509.788, 1234.171 1509.788, 1244.171 1509.788, 1254.171 1509.788, 1264.171 1509.788, 1274.171 1509.788, 1284.171 1509.788, 1294.171 1509.788, 1304.171 1509.788, 1314.171 1509.788, 1324.171 1509.788, 1334.171 1509.788, 1344.171 1509.788, 1354.171 1509.788, 1364.171 1509.788, 1374.171 1509.788, 1384.171 1509.788, 1394.171 1509.788, 1404.171 1509.788, 1414.171 1509.788, 1424.171 1509.788, 1434.171 1509.788, 1444.171 1509.788, 1454.171 1509.788, 1464.171 1509.788, 1474.171 1509.788, 1484.171 1509.788, 1494.171 1509.788, 1504.208 1499.788, 1504.208 1489.788, 1504.208 1479.788, 1504.208 1469.788, 1504.208 1459.788, 1504.208 1449.788, 1504.208 1439.788, 1504.208 1429.788, 1504.208 1419.788, 1504.208 1409.788, 1504.208 1399.788, 1504.208 1389.788, 1504.208 1379.788, 1504.208 1369.788, 1504.208 1359.788, 1504.208 1349.788, 1504.208 1339.788, 1504.208 1329.788, 1504.208 1319.788, 1504.208 1309.788, 1504.208 1299.788, 1504.208 1289.788, 1504.208 1279.788, 1504.208 1269.788, 1504.208 1259.788, 1504.208 1249.788, 1504.208 1239.788, 1504.208 1229.788, 1504.208 1219.788, 1504.208 1209.788, 1504.208 1199.788, 1504.208 1189.788, 1504.208 1179.788, 1504.208 1169.788, 1504.208 1159.788, 1504.208 1149.788, 1504.208 1139.788, 1504.208 1129.788, 1504.208 1119.788, 1504.208 1109.788, 1504.208 1099.788, 1504.208 1089.788, 1504.208 1079.788, 1504.208 1069.788, 1504.208 1059.788, 1504.208 1049.788, 1504.208 1039.788, 1504.208 1029.788, 1504.208 1019.788, 1504.208 1009.788, 1504.208 999.788, 1504.208 989.788, 1504.208 979.788, 1504.208 969.788, 1504.208 959.788, 1504.208 949.788, 1504.208 939.788, 1504.208 929.788, 1504.208 919.788, 1504.208 909.788, 1504.208 899.788, 1504.208 889.788, 1504.208 879.788, 1504.208 869.788, 1504.208 859.788, 1504.208 849.788, 1504.208 839.788, 1504.208 829.788, 1504.208 819.788, 1504.208 809.788, 1504.208 799.788, 1504.208 789.788, 1504.208 779.788, 1504.208 769.788, 1504.208 759.788, 1504.208 749.788, 1504.208 739.788, 1504.208 729.788, 1504.208 719.788, 1504.208 709.788, 1504.208 699.788, 1504.208 689.788, 1504.208 679.788, 1504.208 669.788, 1504.208 659.788, 1504.208 649.788, 1504.208 639.788, 1504.208 629.788, 1504.208 619.788, 1504.208 609.788, 1504.208 599.788, 1504.208 589.788, 1504.208 579.788, 1504.208 562.482, 1504.208 " />
            <path fill="none" stroke-width="3.0" stroke-linecap="butt" stroke-opacity="1.0" stroke="rgb(0, 0, 0)" stroke-linejoin="miter" d=" M 404.598, 1819.977 404.598, 1809.977 404.598, 1799.977 404.598, 1789.977 404.598, 1779.977 404.598, 1769.977 404.598, 1759.977 404.598, 1749.977 404.598, 1739.977 404.598, 1729.977 404.598, 1719.977 404.598, 1709.977 404.598, 1699.977 404.598, 1689.977 404.598, 1679.977 404.598, 1669.977 404.598, 1659.977 404.598, 1649.977 404.598, 1639.977 404.598, 1629.977 404.598, 1619.977 404.598, 1609.977 404.598, 1599.977 404.598, 1589.977 404.598, 1579.977 404.598, 1569.977 404.598, 1559.977 404.598, 1549.977 404.598, 1539.977 404.598, 1529.977 404.598, 1519.977 404.598, 1509.977 404.598, 1499.977 404.598, 1489.977 404.598, 1479.977 404.598, 1469.977 404.598, 1459.977 404.598, 1449.977 404.598, 1439.977 404.598, 1429.977 404.598, 1419.977 404.598, 1409.977 404.598, 1399.977 404.598, 1389.977 404.598, 1379.977 404.598, 1369.977 404.598, 1359.977 404.598, 1349.977 404.598, 1339.977 404.598, 1329.977 404.598, 1319.977 404.598, 1309.977 404.598, 1299.977 404.598, 1289.977 404.598, 1279.977 404.598, 1269.977 404.598, 1259.977 404.598, 1249.977 404.598, 1239.977 404.598, 1229.977 404.598, 1219.977 404.598, 1209.977 404.598, 1199.977 404.598, 1189.977 404.598, 1179.977 404.598, 1169.977 404.598, 1159.977 404.598, 1149.977 404.598, 1139.977 404.598, 1129.977 404.598, 1119.977 404.598, 1109.977 404.598, 1099.977 404.598, 1089.977 404.598, 1079.977 404.598, 1069.977 404.598, 1059.977 404.598, 1049.977 404.598, 1039.977 404.598, 1029.977 404.598, 1019.977 404.598, 1009.977 404.598, 999.977 404.598, 989.977 404.598, 979.977 404.598, 969.977 404.598, 959.977 404.598, 949.977 404.598, 939.977 404.598, 929.977 404.598, 919.977 404.598, 909.977 404.598, 899.977 404.598, 889.977 404.598, 879.977 404.598, 869.977 404.598, 859.977 404.598, 849.977 404.598, 839.977 404.598, 829.977 404.598, 819.977 404.598, 809.977 404.598, 799.977 404.598, 789.977 404.598, 779.977 404.598, 769.977 404.598, 752.055 395.654, 756.527 386.709, 761.000 377.765, 765.472 368.821, 769.944 359.877, 774.416 350.932, 778.888 341.988, 783.360 333.044, 787.832 324.100, 792.305 315.155, 796.777 306.211, 801.249 297.267, 805.721 288.322, 810.193 279.378, 814.665 270.434, 819.137 261.490, 823.609 252.545, 828.082 243.601, 832.554 234.657, 837.026 225.713, 841.498 216.768, 845.970 207.824, 850.442 198.880, 854.914 189.935, 859.387 180.991, 863.859 172.047, 868.331 163.103, 872.803 154.158, 877.275 145.214, 881.747 136.270, 886.219 127.326, 890.692 118.381, 895.164 109.437, 899.636 100.493, 904.108 88.829, 909.940 88.829, 919.940 88.829, 929.940 88.829, 939.940 88.829, 949.940 88.829, 959.940 88.829, 969.940 88.829, 979.940 88.829, 989.940 88.829, 999.940 88.829, 1009.940 88.829, 1019.940 88.829, 1029.940 88.829, 1039.940 88.829, 1049.940 88.829, 1059.940 88.829, 1069.940 88.829, 1079.940 88.829, 1089.940 88.829, 1099.940 88.829, 1109.940 88.829, 1119.940 88.829, 1129.940 88.829, 1139.940 88.829, 1149.940 88.829, 1159.940 88.829, 1169.940 88.829, 1179.940 88.829, 1189.940 88.829, 1199.940 88.829, 1209.940 88.829, 1219.940 88.829, 1229.940 88.829, 1239.940 88.829, 1249.940 88.829, 1259.940 88.829, 1269.940 88.829, 1279.940 88.829, 1289.940 88.829, 1299.940 88.829, 1309.940 88.829, 1319.940 88.829, 1329.940 88.829, 1339.940 88.829, 1349.940 88.829, 1359.940 88.829, 1369.940 88.829, 1379.940 88.829, 1389.940 88.829, 1399.940 88.829, 1409.940 88.829, 1419.940 88.829, 1429.940 88.829, 1439.940 88.829, 1449.940 88.829, 1459.940 88.829, 1469.940 88.829, 1479.940 88.829, 1489.940 88.829, 1499.940 88.829, 1509.940 88.829, 1519.940 88.829, 1529.940 88.829, 1539.940 88.829, 1549.940 88.829, 1559.940 88.829, 1569.940 88.829, 1579.940 88.829, 1589.940 88.829, 1599.940 88.829, 1609.940 88.829, 1619.940 88.829, 1629.940 88.829, 1639.940 88.829, 1649.940 88.829, 1659.940 88.829, 1669.940 88.829, 1679.940 88.829, 1689.940 88.829, 1699.940 88.829, 1709.940 88.829, 1719.940 88.829, 1729.940 88.829, 1739.940 88.829, 1749.940 88.829, 1759.940 88.829, 1769.940 88.829, 1779.940 88.829, 1789.940 88.829, 1799.940 88.829, 1809.940 88.829, 1819.977 98.829, 1819.977 108.829, 1819.977 118.829, 1819.977 128.829, 1819.977 138.829, 1819.977 148.829, 1819.977 158.829, 1819.977 168.829, 1819.977 178.829, 1819.977 188.829, 1819.977 198.829, 1819.977 208.829, 1819.977 218.829, 1819.977 228.829, 1819.977 238.829, 1819.977 248.829, 1819.977 258.829, 1819.977 268.829, 1819.977 278.829, 1819.977 288.829, 1819.977 298.829, 1819.977 308.829, 1819.977 318.829, 1819.977 328.829, 1819.977 338.829, 1819.977 348.829, 1819.977 358.829, 1819.977 368.829, 1819.977 378.829, 1819.977 388.829, 1819.977 398.829, 1819.977 404.598, 1819.977 " />
            <path fill="none" stroke-width="3.0" stroke-linecap="butt" stroke-opacity="1.0" stroke="rgb(0, 0, 0)" stroke-linejoin="miter" d=" M 88.829, 83.249 97.773, 87.721 106.718, 92.193 115.662, 96.665 124.606, 101.138 133.551, 105.610 142.495, 110.082 151.439, 114.554 160.383, 119.026 169.328, 123.498 178.272, 127.970 187.216, 132.443 196.160, 136.915 205.105, 141.387 214.049, 145.859 222.993, 150.331 231.938, 154.803 240.882, 159.275 249.826, 163.747 258.770, 168.220 267.715, 172.692 276.659, 177.164 285.603, 181.636 294.547, 186.108 303.492, 190.580 312.436, 195.052 321.380, 199.525 330.325, 203.997 339.269, 208.469 348.213, 212.941 357.157, 217.413 366.102, 221.885 375.046, 226.357 383.990, 230.829 392.935, 235.302 404.598, 241.133 404.598, 251.133 404.598, 261.133 404.598, 271.133 404.598, 281.133 404.598, 291.133 404.598, 301.133 404.598, 311.133 404.598, 321.133 404.598, 331.133 404.598, 341.133 404.598, 351.133 404.598, 361.133 404.598, 371.133 404.598, 381.133 404.598, 391.133 404.598, 401.133 404.598, 411.133 404.598, 421.133 404.598, 431.133 404.598, 441.133 404.598, 451.133 404.598, 461.133 404.598, 471.133 404.598, 481.133 404.598, 491.133 404.598, 501.133 404.598, 511.133 404.598, 521.133 404.598, 531.133 404.598, 541.133 404.598, 551.133 404.598, 561.133 404.598, 571.133 404.598, 581.133 404.598, 594.171 395.654, 598.643 386.709, 603.115 377.765, 607.587 368.821, 612.060 359.877, 616.532 350.932, 621.004 341.988, 625.476 333.044, 629.948 324.100, 634.420 315.155, 638.892 306.211, 643.365 297.267, 647.837 288.322, 652.309 279.378, 656.781 270.434, 661.253 261.490, 665.725 252.545, 670.197 243.601, 674.669 234.657, 679.142 225.713, 683.614 216.768, 688.086 207.824, 692.558 198.880, 697.030 189.935, 701.502 180.991, 705.974 172.047, 710.447 163.103, 714.919 154.158, 719.391 145.214, 723.863 136.270, 728.335 127.326, 732.807 118.381, 737.279 109.437, 741.751 100.493, 746.224 88.829, 752.055 88.829, 742.055 88.829, 732.055 88.829, 722.055 88.829, 712.055 88.829, 702.055 88.829, 692.055 88.829, 682.055 88.829, 672.055 88.829, 662.055 88.829, 652.055 88.829, 642.055 88.829, 632.055 88.829, 622.055 88.829, 612.055 88.829, 602.055 88.829, 592.055 88.829, 582.055 88.829, 572.055 88.829, 562.055 88.829, 552.055 88.829, 542.055 88.829, 532.055 88.829, 522.055 88.829, 512.055 88.829, 502.055 88.829, 492.055 88.829, 482.055 88.829, 472.055 88.829, 462.055 88.829, 452.055 88.829, 442.055 88.829, 432.055 88.829, 422.055 88.829, 412.055 88.829, 402.055 88.829, 392.055 88.829, 382.055 88.829, 372.055 88.829, 362.055 88.829, 352.055 88.829, 342.055 88.829, 332.055 88.829, 322.055 88.829, 312.055 88.829, 302.055 88.829, 292.055 88.829, 282.055 88.829, 272.055 88.829, 262.055 88.829, 252.055 88.829, 242.055 88.829, 232.055 88.829, 222.055 88.829, 212.055 88.829, 202.055 88.829, 192.055 88.829, 182.055 88.829, 172.055 88.829, 162.055 88.829, 152.055 88.829, 142.055 88.829, 132.055 88.829, 122.055 88.829, 112.055 88.829, 102.055 88.829, 92.055 88.829, 83.249 " />
        </g>
    </g>
</svg>
